<?xml version="1.0" standalone="no"?>
<!DOCTYPE svg PUBLIC "-//W3C//DTD SVG 20010904//EN"
 "http://www.w3.org/TR/2001/REC-SVG-20010904/DTD/svg10.dtd">
<svg version="1.0" xmlns="http://www.w3.org/2000/svg"
 width="192.000000pt" height="192.000000pt" viewBox="0 0 192.000000 192.000000"
 preserveAspectRatio="xMidYMid meet">
<metadata>
Created by potrace 1.11, written by Peter Selinger 2001-2013
</metadata>
<g transform="translate(0.000000,192.000000) scale(0.100000,-0.100000)"
fill="#000000" stroke="none">
<path d="M527 1765 c-50 -17 -64 -30 -93 -86 -33 -66 -45 -180 -30 -289 2 -19
7 -56 11 -81 l6 -45 -43 -13 c-61 -19 -186 -83 -232 -120 -87 -69 -121 -151
-96 -227 27 -80 158 -177 317 -234 35 -12 61 -26 58 -29 -11 -19 -20 -117 -20
-221 0 -103 3 -121 26 -171 48 -101 122 -128 246 -91 70 22 191 95 251 153
l33 31 27 -23 c15 -13 29 -26 32 -29 22 -23 119 -85 171 -110 206 -95 330 -5
331 243 0 45 -5 113 -11 151 -7 38 -8 72 -4 76 4 3 40 19 79 34 174 66 294
175 294 267 0 108 -109 211 -306 288 l-81 32 14 67 c13 70 17 178 8 247 -8 57
-49 137 -85 163 -84 62 -240 18 -403 -114 l-68 -55 -47 39 c-150 126 -291 179
-385 147z m860 -85 c2 0 12 -19 24 -42 17 -33 23 -63 24 -131 2 -96 -14 -212
-30 -212 -6 1 -41 6 -80 13 -106 18 -119 20 -136 21 -8 1 -30 20 -47 44 -17
24 -51 66 -76 94 l-45 50 32 30 c106 97 237 159 302 141 16 -4 31 -8 32 -8z
m-698 -15 c58 -27 165 -100 193 -132 16 -18 15 -20 -20 -58 -29 -32 -113 -134
-116 -142 -1 -1 -21 -4 -46 -8 -67 -9 -163 -25 -181 -31 -36 -10 -48 262 -15
338 9 20 24 42 33 47 31 18 96 12 152 -14z m321 -323 c-27 -2 -72 -2 -100 0
l-50 3 48 57 47 57 53 -57 52 -57 -50 -3z m88 -90 c27 -2 37 -10 66 -55 42
-65 71 -115 107 -185 l28 -54 -35 -66 c-20 -37 -45 -83 -57 -103 -12 -19 -33
-54 -46 -76 -13 -23 -31 -43 -41 -46 -34 -9 -303 -6 -321 4 -31 16 -169 248
-169 284 0 21 60 137 117 227 33 53 48 67 70 70 27 3 213 3 281 0z m-470 -105
c-24 -42 -45 -76 -48 -77 -7 0 -53 130 -48 136 8 8 133 30 136 24 1 -3 -17
-40 -40 -83z m705 72 c64 -14 62 -6 29 -101 -9 -27 -19 -48 -22 -48 -4 0 -14
15 -23 33 -8 17 -30 56 -47 85 -26 45 -28 53 -13 49 10 -3 44 -11 76 -18z
m-877 -66 c4 -16 22 -65 40 -111 l32 -83 -39 -104 c-21 -57 -39 -109 -39 -114
0 -15 2 -15 -78 18 -177 71 -268 157 -242 225 20 54 106 119 220 167 84 36 98
36 106 2z m1142 -14 c91 -43 166 -100 186 -143 15 -31 15 -39 2 -69 -24 -58
-122 -125 -257 -177 -63 -23 -59 -23 -59 -9 0 5 -18 57 -39 114 l-39 103 41
112 c41 111 41 112 70 106 16 -3 59 -20 95 -37z m-925 -447 c9 -11 4 -12 -29
-7 -50 9 -114 25 -114 29 0 7 40 117 46 127 3 6 24 -22 46 -63 22 -40 45 -79
51 -86z m695 92 c12 -36 20 -69 17 -74 -3 -4 -26 -11 -52 -15 -27 -3 -58 -9
-70 -12 -20 -4 -18 3 25 81 26 47 49 86 53 86 3 0 15 -30 27 -66z m-698 -189
c14 -1 35 -3 47 -4 14 -1 44 -28 85 -79 36 -42 72 -85 82 -94 16 -16 15 -19
-15 -48 -79 -75 -208 -142 -275 -144 -81 -1 -107 50 -107 209 0 61 5 128 11
151 l12 41 67 -14 c38 -8 79 -16 93 -18z m755 -12 c14 -74 14 -223 0 -271 -29
-94 -83 -108 -201 -53 -67 32 -182 114 -191 137 -3 7 18 39 45 71 28 32 63 72
79 90 24 27 37 33 88 39 33 3 63 8 66 10 4 2 24 6 45 10 22 3 41 8 43 10 9 9
19 -8 26 -43z m-385 -32 c-11 -14 -33 -42 -49 -61 l-29 -35 -32 35 c-17 19
-39 47 -50 61 l-19 26 99 -1 99 0 -19 -25z"/>
<path d="M880 1107 c-109 -57 -119 -217 -19 -288 43 -30 124 -37 172 -14 89
42 123 154 73 239 -47 80 -143 107 -226 63z"/>
</g>
</svg>
